<?xml version="1.0" encoding="UTF-8"?>
<svg id="a" xmlns="http://www.w3.org/2000/svg" width="719.83" height="107.57" viewBox="0 0 719.83 107.57">
  <defs>
    <style>
      .b {
        fill: #fff;
      }
    </style>
  </defs>
  <path class="b" d="M116.59,96.3v11.05h-10.6L14.66,62.47v44.88H0V1.58h14.66v43.53L105.99,1.58h10.6v11.05L28.42,53.9l88.18,42.4Z"/>
  <path class="b" d="M242.65,71.04c0,20.07-14.21,36.54-34.28,36.54h-50.74c-20.52,0-35.18-16.01-35.18-36.54v-35.18C122.45,15.11,136.88.45,157.63.45h49.84c20.52,0,35.18,14.88,35.18,35.41v35.18ZM227.77,38.11c0-12.4-8.34-23.23-20.3-23.23h-49.84c-11.95,0-20.3,10.83-20.3,23.23v31.8c0,11.95,8.34,23,20.3,23h49.84c11.95,0,20.3-11.05,20.3-23v-31.8Z"/>
  <path class="b" d="M363.07,107.57h-68.56c-20.52,0-35.18-16.01-35.18-36.54l.23-71.04h14.66v69.91c0,11.95,8.34,23,20.3,23h68.56v14.66h-.01Z"/>
  <path class="b" d="M473.8,107.57h-68.56c-20.52,0-35.18-16.01-35.18-36.54v-34.51c0-20.52,14.66-34.96,35.18-34.96h68.56v14.88h-68.56c-11.73,0-20.3,9.7-20.3,21.2v10.6l88.18.23v14.66l-88.18-.23v6.99c0,11.95,8.57,23,20.3,23h68.56v14.68ZM473.8,107.57h-68.56c-20.52,0-35.18-16.01-35.18-36.54v-34.51c0-20.52,14.66-34.96,35.18-34.96h68.56v14.88h-68.56c-11.73,0-20.3,9.7-20.3,21.2v10.6l88.18.23v14.66l-88.18-.23v6.99c0,11.95,8.57,23,20.3,23h68.56v14.68Z"/>
  <path class="b" d="M585.42,107.57h-68.56c-20.52,0-35.18-16.01-35.18-36.54v-34.51c0-20.52,14.66-34.96,35.18-34.96h68.56v14.88h-68.56c-11.73,0-20.3,9.7-20.3,21.2v10.6l88.18.23v14.66l-88.18-.23v6.99c0,11.95,8.57,23,20.3,23h68.56v14.68ZM585.42,107.57h-68.56c-20.52,0-35.18-16.01-35.18-36.54v-34.51c0-20.52,14.66-34.96,35.18-34.96h68.56v14.88h-68.56c-11.73,0-20.3,9.7-20.3,21.2v10.6l88.18.23v14.66l-88.18-.23v6.99c0,11.95,8.57,23,20.3,23h68.56v14.68Z"/>
  <path class="b" d="M719.83,96.3v11.05h-10.6l-48.04-42.62-48.04,42.62h-10.37v-11.05l46.91-41.72-46.91-41.95V1.58h10.37l48.04,42.62L709.23,1.58h10.6v11.05l-47.13,41.95,47.13,41.72ZM661.19,71.04l40.59,36.31h-81.19l40.59-36.31h0Z"/>
</svg>